<svg width="25" height="24" viewBox="0 0 25 24" fill="none" xmlns="http://www.w3.org/2000/svg">
<g clip-path="url(#clip0_25_29)">
<path d="M6.90783 18.01C10.0528 18.01 12.6328 15.58 12.8878 12.5H15.6678V21.48H18.8578V23.75H24.3978V18.21H18.8578V20.48H16.6678V12.5H18.8578V14.77H24.3978V9.23H18.8578V11.5H16.6678V3.52H18.8578V5.79H24.3978V0.25H18.8578V2.52H15.6678V11.5H12.8878C12.6328 8.42 10.0478 5.99 6.90783 5.99C3.59283 5.99 0.897827 8.69 0.897827 12C0.897827 15.31 3.59283 18.01 6.90783 18.01ZM19.8578 19.21H23.3978V22.75H19.8578V19.21ZM19.8578 10.23H23.3978V13.77H19.8578V10.23ZM19.8578 1.25H23.3978V4.79H19.8578V1.25ZM6.90783 6.99C9.66783 6.99 11.9178 9.235 11.9178 12C11.9178 14.765 9.67283 17.01 6.90783 17.01C4.14283 17.01 1.89783 14.76 1.89783 12C1.89783 9.24 4.14283 6.99 6.90783 6.99Z" fill="#192324"/>
<path d="M4.35785 13.0649V13.0899H4.38285L7.66285 16.4449L8.37785 15.7449L5.78285 13.0899H7.02785C8.15285 13.0899 9.09285 12.2949 9.32285 11.2399H9.78785V10.2399H9.32285C9.25285 9.92989 9.12285 9.63989 8.94785 9.38989H9.78785V8.38989H7.03285H4.59285H4.35785V9.38989H4.59285H7.02785C7.59285 9.38989 8.07785 9.74489 8.27785 10.2399H4.59285V11.2399H8.27785C8.07785 11.7349 7.59285 12.0899 7.02785 12.0899H4.35785V12.8199L4.23285 12.9399L4.35785 13.0649Z" fill="#192324"/>
</g>
<defs>
<clipPath id="clip0_25_29">
<rect width="24" height="24" fill="white" transform="translate(0.647827)"/>
</clipPath>
</defs>
</svg>
