<svg height="512" viewBox="0 0 128 128" width="512" xmlns="http://www.w3.org/2000/svg"><g><path d="m63.412 51.705 11.448-11.448a1.75 1.75 0 0 0 -2.474-2.475l-10.212 10.211-6.754-6.754a1.75 1.75 0 0 0 -2.475 2.475l7.992 7.991a1.749 1.749 0 0 0 2.475 0z"  fill="#7C877F"/><path d="m108.893 51.131h-13.97a1.749 1.749 0 0 0 -1.75 1.75v3.41h-8.134a23.905 23.905 0 1 0 -42.13.26h-8.276v-3.409a1.75 1.75 0 0 0 -1.75-1.75h-13.99a1.75 1.75 0 0 0 -1.75 1.75v40.9a1.75 1.75 0 0 0 1.75 1.75h13.99a1.75 1.75 0 0 0 1.75-1.75v-2.63h9.82a2.741 2.741 0 0 1 1.932.8l12.9 12.91a5.668 5.668 0 0 0 9.484-2.735 5.74 5.74 0 0 0 7.021-5.374 5.772 5.772 0 0 0 5.53-5.544 4.718 4.718 0 0 0 1.472-.266 3.871 3.871 0 0 1 .541-.048h9.84v2.63a1.749 1.749 0 0 0 1.75 1.75h13.97a1.75 1.75 0 0 0 1.75-1.75v-40.9a1.75 1.75 0 0 0 -1.75-1.754zm-65.393-5.985a20.4 20.4 0 1 1 37.475 11.145h-9.842a7.931 7.931 0 0 0 -5.5 2.193l-1.863 1.863-1.46-1.463a8.036 8.036 0 0 0 -5.647-2.333h-9.656a20.206 20.206 0 0 1 -3.507-11.405zm-12.367 47.145h-10.49v-37.4h10.49zm43.027.6c-.1-.1-5.965-5.962-5.865-5.862a1.75 1.75 0 1 0 -2.474 2.475l5.87 5.868c1.928 1.945-1.114 5.015-3.081 3.049l-5.852-5.855a1.75 1.75 0 1 0 -2.475 2.475l4.532 4.534c1.952 1.954-1.063 5.061-3.055 3.066l-12.91-12.917a6.171 6.171 0 0 0 -4.4-1.813h-9.82v-27.86h22.03a4.513 4.513 0 0 1 3.172 1.307l1.468 1.463-11.034 11.032a1.75 1.75 0 0 0 0 2.474 13.682 13.682 0 0 0 9.743 4.046h.007a13.709 13.709 0 0 0 9.756-4.045l1.9-1.9a9.148 9.148 0 0 0 2.39 1.175l8.694 8.685c1.987 1.986-1.1 5.015-3.046 3.084-.1-.1-5.987-5.961-5.876-5.877a1.75 1.75 0 0 0 -2.475 2.475l5.869 5.869c1.924 1.961-1.086 5.036-3.068 3.055zm12.384-5.243a5.661 5.661 0 0 0 -1.315-5.838l-6.016-6.01a9.4 9.4 0 0 0 4.477-2.509 1.75 1.75 0 1 0 -2.484-2.465 5.912 5.912 0 0 1 -5.756 1.537l-.017-.008a5.69 5.69 0 0 1 -2.616-1.521 1.752 1.752 0 0 0 -1.241-.526 1.633 1.633 0 0 0 -1.246.513l-3.03 3.032a10.228 10.228 0 0 1 -7.281 3.02h-.005a10.19 10.19 0 0 1 -5.928-1.885l10.924-10.929 3.067-3.067a4.418 4.418 0 0 1 3.056-1.2h22.04v27.86zm20.6 4.38h-10.471v-37.4h10.47z"  fill="#7C877F"/></g></svg>