<svg width="24" height="24" viewBox="0 0 24 24" fill="none" xmlns="http://www.w3.org/2000/svg">
<g clip-path="url(#clip0_25_62)">
<path d="M4.39991 20H13.9999H23.5999C23.8399 20 23.9999 19.84 23.9999 19.6V12.4V5.20003V0.399984C23.9999 0.159984 23.8399 0 23.5999 0H15.9999H11.5999H4.39986C4.15986 0 3.99988 0.159984 3.99988 0.399984V9.99998V13.2V18V19.6C3.99988 19.84 4.15991 20 4.39991 20ZM4.79989 13.6H8.79988C8.59986 15.72 6.91986 17.4 4.79989 17.6V13.6ZM4.79989 0.800016H11.1999V3.20002H10.7999C10.5599 3.20002 10.3999 3.36 10.3999 3.6C10.3999 3.84 10.5599 3.99998 10.7999 3.99998H12.3999C12.6399 3.99998 12.7999 3.84 12.7999 3.6C12.7999 3.36 12.6399 3.20002 12.3999 3.20002H11.9999V0.800016H15.5999V5.20003C15.5999 5.44003 15.7599 5.60002 15.9999 5.60002H17.5999V6C17.5999 6.24 17.7598 6.39998 17.9998 6.39998C18.2398 6.39998 18.3998 6.24 18.3998 6V4.40002C18.3998 4.16002 18.2398 4.00003 17.9998 4.00003C17.7598 4.00003 17.5999 4.16002 17.5999 4.40002V4.8H16.3999V0.800016H23.1999V4.8H21.5999V4.40002C21.5999 4.16002 21.4399 4.00003 21.1999 4.00003C20.9599 4.00003 20.7999 4.16002 20.7999 4.40002V6C20.7999 6.24 20.9599 6.39998 21.1999 6.39998C21.4399 6.39998 21.5999 6.24 21.5999 6V5.60002H23.1999V12H20.7999V11.6C20.7999 11.36 20.6399 11.2 20.3999 11.2C20.1599 11.2 19.9999 11.36 19.9999 11.6V13.2C19.9999 13.44 20.1599 13.6 20.3999 13.6C20.6399 13.6 20.7999 13.44 20.7999 13.2V12.8H23.1999V19.2H14.3999V12.8H16.7999V13.2C16.7999 13.44 16.9599 13.6 17.1999 13.6C17.4399 13.6 17.5999 13.44 17.5999 13.2V11.6C17.5999 11.36 17.4399 11.2 17.1999 11.2C16.9599 11.2 16.7999 11.36 16.7999 11.6V12H13.9999C13.7599 12 13.5999 12.16 13.5999 12.4V19.2H4.79989V18.3849C7.49169 18.1819 9.59989 15.9454 9.59989 13.2C9.59989 12.96 9.43991 12.8 9.19991 12.8H4.79989V10.4H11.5999C11.8399 10.4 11.9999 10.24 11.9999 10V7.2H12.3999C12.6399 7.2 12.7999 7.04002 12.7999 6.80002C12.7999 6.56002 12.6399 6.40003 12.3999 6.40003H10.7999C10.5599 6.40003 10.3999 6.56002 10.3999 6.80002C10.3999 7.04002 10.5599 7.2 10.7999 7.2H11.1999V9.6H4.79989V0.800016Z" fill="#192324"/>
<path d="M3.08013 19.88C3.24011 19.72 3.24011 19.48 3.08013 19.32C2.92014 19.16 2.68014 19.16 2.52011 19.32L2.00013 19.84V1.35998L2.52011 1.88002C2.60013 1.96003 2.68009 2.00002 2.80009 2.00002C2.92009 2.00002 3.00011 1.96003 3.08008 1.88002C3.24006 1.72003 3.24006 1.48003 3.08008 1.32L1.94856 0.188437C1.88317 0.0708281 1.75942 0 1.60009 0C1.44077 0 1.31706 0.0708281 1.25163 0.188437L0.12011 1.32C-0.039874 1.47998 -0.039874 1.71998 0.12011 1.88002C0.280095 2.04005 0.520095 2.04 0.680126 1.88002L1.20011 1.35998V19.84L0.680126 19.32C0.520142 19.16 0.280142 19.16 0.12011 19.32C-0.039874 19.48 -0.039874 19.72 0.12011 19.88L1.25167 21.0116C1.31706 21.1292 1.44077 21.2 1.60014 21.2C1.75947 21.2 1.88317 21.1292 1.94856 21.0116L3.08013 19.88Z" fill="#192324"/>
<path d="M23.9999 22.4004C23.9999 22.4002 23.9999 22.4 23.9999 22.3997C23.9998 22.2406 23.929 22.117 23.8114 22.0516L22.6799 20.92C22.5199 20.7601 22.2799 20.7601 22.1199 20.92C21.9599 21.08 21.9599 21.32 22.1199 21.4801L22.6398 22H4.1599L4.67988 21.4801C4.83987 21.3201 4.83987 21.0801 4.67988 20.9201C4.5199 20.7601 4.2799 20.7601 4.11987 20.9201L2.9883 22.0516C2.87069 22.117 2.79987 22.2407 2.79987 22.4001C2.79987 22.5595 2.87069 22.6831 2.9883 22.7486L4.11987 23.8801C4.19988 23.9602 4.27985 24.0001 4.39985 24.0001C4.51985 24.0001 4.59987 23.9602 4.67983 23.8801C4.83982 23.7202 4.83982 23.4802 4.67983 23.3201L4.1599 22.8001H22.6399L22.1199 23.3201C21.9599 23.4801 21.9599 23.7201 22.1199 23.8801C22.1999 23.9601 22.2799 24.0001 22.3999 24.0001C22.5199 24.0001 22.5999 23.9601 22.6799 23.8801L23.8114 22.7485C23.929 22.6832 23.9997 22.5596 23.9999 22.4004Z" fill="#192324"/>
</g>
<defs>
<clipPath id="clip0_25_62">
<rect width="24" height="24" fill="white"/>
</clipPath>
</defs>
</svg>
