<svg id="Layer_1" enable-background="new 0 0 512 512" viewBox="0 0 512 512" xmlns="http://www.w3.org/2000/svg"><g><path d="m255.68 356.58c-2.92 3.29-7.97 3.6-11.25.68-3.32-2.92-3.6-7.94-.71-11.25l6.63-7.48-6.63-7.51c-2.89-3.29-2.61-8.33.71-11.25 3.29-2.92 8.33-2.61 11.25.68l5.3 6.04 5.3-6.04c2.92-3.29 7.97-3.6 11.25-.68 3.32 2.92 3.6 7.96.71 11.25l-6.63 7.51 6.63 7.48c2.89 3.32 2.61 8.33-.71 11.25-3.29 2.92-8.33 2.61-11.25-.68l-5.3-6.04zm45.22-84.78c-2.92 3.32-7.97 3.6-11.25.71-3.32-2.92-3.6-7.96-.71-11.25l6.63-7.51-6.63-7.51c-2.89-3.29-2.61-8.33.71-11.25 3.29-2.92 8.33-2.61 11.25.71l5.3 6.01 5.3-6.01c2.92-3.32 7.97-3.63 11.25-.71 3.32 2.92 3.6 7.96.71 11.25l-6.63 7.51 6.63 7.51c2.89 3.29 2.61 8.33-.71 11.25-3.29 2.89-8.33 2.61-11.25-.71l-5.3-6.01zm-119.4-9.89c-2.92 3.32-7.97 3.63-11.25.71-3.29-2.92-3.6-7.97-.68-11.25l6.6-7.51-6.6-7.51c-2.92-3.29-2.61-8.33.68-11.25 3.29-2.89 8.33-2.61 11.25.71l5.3 6.01 5.33-6.01c2.92-3.32 7.94-3.6 11.25-.71 3.29 2.92 3.6 7.97.68 11.25l-6.63 7.51 6.63 7.51c2.92 3.29 2.61 8.33-.68 11.25-3.32 2.92-8.33 2.61-11.25-.71l-5.33-6.01zm-72.96 92.58c-4.39.48-8.33-2.72-8.79-7.09-.45-4.39 2.72-8.33 7.09-8.79 69.48-7.37 128.58-53.26 141.17-123.96h-12.39c-4.42 0-7.99-3.57-7.99-7.99v-39.2h-21.26c-5.95 0-10.66-6.72-6.32-12.9l50.48-80.67c3.12-4.99 10.43-5.05 13.58.14l50.85 81.21c3.34 5.33-.57 12.19-6.75 12.16v.06h-21.26v39.2c0 4.42-3.57 7.99-7.99 7.99h-14.74c-12.76 79.15-78.3 131.62-155.68 139.84zm85.23 80.9 43.37 26.14v-52.3zm13.84 26.98-31.49-18.99h-98.14c-17.92 0-32.51-14.6-32.51-32.51v-294.35c0-2.18.85-4.2 2.38-5.7l90.74-90.74c1.53-1.53 3.51-2.41 5.7-2.41h201.54c17.92 0 32.51 14.6 32.51 32.54v336.84h51.36c51.65 0 51.65 96.63 0 96.63h-29.71l-.68-.03h-153.58c-1.59.11-3.23-.26-4.73-1.13zm-31.5-35.01 64.54-38.92c1.39-.88 2.78-1.39 4.54-1.39h117.16v-336.84c0-9.1-7.46-16.53-16.53-16.53h-193.52v58.32c0 17.91-14.6 32.51-32.54 32.51h-58.31v286.36c0 9.07 7.43 16.5 16.53 16.5h98.13zm77.02-24.29v64.66h138.87v-64.66zm154.89 64.6h21.69c30.36 0 30.36-64.6 0-64.6h-21.69zm-285.28-266.03c-2.92 3.32-7.94 3.63-11.25.71-3.29-2.92-3.6-7.97-.68-11.25l6.63-7.51-6.63-7.51c-2.92-3.29-2.61-8.33.68-11.23 3.32-2.92 8.33-2.64 11.25.68l5.33 6.01 5.3-6.01c2.92-3.32 7.97-3.6 11.25-.68 3.29 2.89 3.6 7.94.68 11.23l-6.6 7.51 6.6 7.51c2.92 3.29 2.61 8.33-.68 11.25s-8.33 2.61-11.25-.71l-5.3-6.01zm153.27-78.66-18.74-29.88-36.51 58.34h14.85c4.42 0 7.99 3.6 7.99 8.02v39.2h27.35v-39.2c0-4.42 3.57-8.02 7.99-8.02h14.85zm-203.25-14.46h47c9.1 0 16.53-7.43 16.53-16.53v-46.99z" fill="#7C877F"/></g></svg>