<svg width="25" height="24" viewBox="0 0 25 24" fill="none" xmlns="http://www.w3.org/2000/svg">
<path d="M23.4921 4.23487L22.3671 3.10987C22.2968 3.03954 22.2014 3.00002 22.102 2.99999H5.60199V2.24999C5.60196 2.15054 5.56244 2.05518 5.49211 1.98487L4.36711 0.859865C4.3323 0.825035 4.29097 0.797405 4.24548 0.778554C4.19998 0.759703 4.15122 0.75 4.10198 0.75C4.05273 0.75 4.00397 0.759703 3.95848 0.778554C3.91299 0.797405 3.87165 0.825035 3.83684 0.859865L2.71184 1.98487C2.64152 2.05518 2.60201 2.15055 2.60199 2.24999V2.99999H1.47699C1.37753 2.99999 1.28215 3.0395 1.21182 3.10983C1.1415 3.18015 1.10199 3.27553 1.10199 3.37499V5.62499C1.10199 5.72445 1.1415 5.81983 1.21182 5.89016C1.28215 5.96048 1.37753 5.99999 1.47699 5.99999H2.60199V22.875C2.60199 22.9744 2.6415 23.0698 2.71182 23.1402C2.78215 23.2105 2.87753 23.25 2.97699 23.25C3.07645 23.25 3.17183 23.2105 3.24215 23.1402C3.31248 23.0698 3.35199 22.9744 3.35199 22.875V2.40526L4.10199 1.65526L4.85199 2.40526V22.875C4.85199 22.9744 4.8915 23.0698 4.96182 23.1402C5.03215 23.2105 5.12753 23.25 5.22699 23.25C5.32645 23.25 5.42183 23.2105 5.49215 23.1402C5.56248 23.0698 5.60199 22.9744 5.60199 22.875V5.99999H9.35199V7.49999H8.22699C7.92872 7.50032 7.64276 7.61895 7.43185 7.82985C7.22095 8.04076 7.10232 8.32672 7.10199 8.62499V19.125C7.10232 19.4233 7.22095 19.7092 7.43185 19.9201C7.64276 20.131 7.92872 20.2497 8.22699 20.25H20.977C21.2753 20.2497 21.5612 20.131 21.7721 19.9201C21.983 19.7092 22.1017 19.4233 22.102 19.125V8.62499C22.1017 8.32672 21.983 8.04076 21.7721 7.82985C21.5612 7.61895 21.2753 7.50032 20.977 7.49999H19.852V5.99999H22.102C22.2014 5.99996 22.2968 5.96044 22.3671 5.89012L23.4921 4.76512C23.5269 4.7303 23.5546 4.68897 23.5734 4.64348C23.5923 4.59799 23.602 4.54923 23.602 4.49999C23.602 4.45075 23.5923 4.40199 23.5734 4.3565C23.5546 4.31101 23.5269 4.26968 23.4921 4.23487ZM1.85199 5.24999V3.74999H2.60199V5.24999H1.85199ZM21.352 8.62499V19.125C21.3519 19.2244 21.3123 19.3197 21.242 19.39C21.1717 19.4603 21.0764 19.4999 20.977 19.5H8.22699C8.12756 19.4999 8.03224 19.4603 7.96193 19.39C7.89163 19.3197 7.85209 19.2244 7.85199 19.125V8.62499C7.85212 8.52557 7.89167 8.43027 7.96197 8.35997C8.03227 8.28967 8.12757 8.25012 8.22699 8.24999H20.977C21.0764 8.25012 21.1717 8.28967 21.242 8.35997C21.3123 8.43027 21.3519 8.52557 21.352 8.62499ZM19.102 7.49999H10.102V5.99999H19.102V7.49999ZM21.9467 5.24999H5.60199V3.74999H21.9467L22.6967 4.49999L21.9467 5.24999ZM10.3375 14.3353C10.3969 14.4119 10.4838 14.4625 10.5798 14.4763C10.6758 14.4901 10.7734 14.466 10.852 14.4093V18.375C10.852 18.4242 10.8617 18.473 10.8805 18.5185C10.8994 18.564 10.927 18.6054 10.9618 18.6402C10.9966 18.675 11.038 18.7026 11.0835 18.7215C11.129 18.7403 11.1777 18.75 11.227 18.75H17.9552C18.0044 18.75 18.0532 18.7403 18.0987 18.7215C18.1442 18.7026 18.1856 18.675 18.2204 18.6402C18.2552 18.6054 18.2828 18.564 18.3017 18.5185C18.3205 18.473 18.3302 18.4242 18.3302 18.375V14.3956L18.3408 14.4038C18.4196 14.4643 18.5193 14.4911 18.6178 14.4783C18.7164 14.4655 18.8058 14.414 18.8665 14.3353L19.774 13.1576C19.8041 13.1185 19.8262 13.074 19.839 13.0264C19.8519 12.9788 19.8552 12.9292 19.8489 12.8803C19.8425 12.8314 19.8266 12.7843 19.8021 12.7416C19.7775 12.6989 19.7447 12.6614 19.7057 12.6313L15.2877 9.23327C15.091 9.08223 14.85 9.00036 14.602 9.00036C14.354 9.00036 14.113 9.08223 13.9163 9.23327L9.49829 12.6313C9.45924 12.6614 9.4265 12.6989 9.40193 12.7416C9.37736 12.7843 9.36145 12.8314 9.35511 12.8803C9.34877 12.9292 9.35212 12.9788 9.36496 13.0264C9.37781 13.074 9.39991 13.1185 9.42999 13.1576L10.3375 14.3353ZM15.352 18H13.8302V15.375H15.352V18ZM17.5802 18H16.102V15C16.102 14.9507 16.0923 14.902 16.0735 14.8565C16.0546 14.811 16.027 14.7696 15.9922 14.7348C15.9574 14.7 15.916 14.6723 15.8705 14.6535C15.825 14.6347 15.7762 14.625 15.727 14.625H13.4552C13.4059 14.625 13.3572 14.6347 13.3117 14.6535C13.2662 14.6723 13.2248 14.7 13.19 14.7348C13.1552 14.7696 13.1276 14.811 13.1087 14.8565C13.0899 14.902 13.0802 14.9507 13.0802 15V18H11.602V13.8353L14.602 11.5268L17.5802 13.8185V18ZM14.3733 9.82762C14.4389 9.77738 14.5193 9.75016 14.6019 9.75016C14.6845 9.75016 14.7649 9.77738 14.8305 9.82762L18.9509 12.9972L18.5012 13.5806L14.8307 10.7565C14.7651 10.7061 14.6847 10.6787 14.602 10.6787C14.5193 10.6787 14.4389 10.7061 14.3733 10.7565L10.7028 13.5806L10.2531 12.9972L14.3733 9.82762Z" fill="#192324"/>
</svg>
