<svg width="25" height="25" viewBox="0 0 25 25" fill="none" xmlns="http://www.w3.org/2000/svg">
<g clip-path="url(#clip0_27_218)">
<path d="M21.3852 9.57511C21.3311 9.4926 21.239 9.44287 21.1403 9.44287C21.0418 9.44287 20.9498 9.4926 20.8957 9.57511L18.2728 13.5743C18.2139 13.6643 18.2089 13.7792 18.26 13.8739C18.3111 13.9686 18.4099 14.0275 18.5176 14.0275H20.755C20.4465 16.2597 19.3303 18.3015 17.6176 19.766C15.9989 21.154 13.9656 21.9499 12.039 21.9499C10.7823 21.9499 9.46846 21.6113 8.23942 20.9703C6.96294 20.3039 5.85604 19.3542 5.00296 18.1944C4.90749 18.0639 4.72438 18.0357 4.59385 18.1311C4.46352 18.2266 4.43512 18.4099 4.53078 18.5402C5.43684 19.7725 6.6129 20.7813 7.96865 21.4893C9.28096 22.1736 10.6884 22.5353 12.039 22.5353C14.1034 22.5353 16.2756 21.6879 17.9987 20.2104C19.841 18.6347 21.0334 16.4316 21.3453 14.0275H23.7632C23.8707 14.0275 23.9696 13.9686 24.0208 13.8739C24.0719 13.7792 24.067 13.6643 24.0081 13.5743L21.3852 9.57511ZM19.0595 13.4421L21.1403 10.2691L23.2213 13.4419L19.0595 13.4421Z" fill="#192324"/>
<path d="M2.97149 15.4076C3.0702 15.4076 3.16204 15.3578 3.21616 15.2753L5.83906 11.2763C5.89813 11.1864 5.90289 11.0713 5.85182 10.9766C5.80076 10.8821 5.70186 10.823 5.59439 10.823H3.35697C3.66547 8.5909 4.78151 6.54917 6.49416 5.08443C8.11287 3.69666 10.1462 2.90055 12.073 2.90055C13.3295 2.90055 14.6433 3.23935 15.8726 3.88016C17.1489 4.5467 18.2558 5.4962 19.1089 6.65626C19.2043 6.7866 19.3876 6.8148 19.518 6.71933C19.6485 6.62387 19.6767 6.44075 19.5812 6.31022C18.675 5.07795 17.4991 4.06918 16.1432 3.36111C14.8308 2.67685 13.4235 2.31519 12.073 2.31519C10.0086 2.31519 7.83639 3.16255 6.11326 4.64007C4.27084 6.2159 3.07839 8.41883 2.76665 10.823H0.348595C0.241126 10.823 0.142231 10.8821 0.0911644 10.9766C0.0399068 11.0713 0.0448611 11.1864 0.103931 11.2763L2.72664 15.2753C2.78076 15.3578 2.87279 15.4076 2.97149 15.4076ZM5.05228 11.4083L2.97149 14.5814L0.890515 11.4083H5.05228Z" fill="#192324"/>
<path d="M12.1849 5.6473C12.1038 5.60748 12.0085 5.60748 11.9273 5.6473L6.73943 8.18788C6.63901 8.23704 6.57556 8.33899 6.57556 8.45084V13.3117C6.57556 14.5713 7.3913 16.1139 8.43246 16.8239L11.8911 19.1827C11.9906 19.2506 12.1215 19.2506 12.2209 19.1827L15.6794 16.8239C16.7207 16.1139 17.5365 14.5713 17.5365 13.3117V8.45808C17.5367 8.34642 17.4732 8.24448 17.373 8.19531L12.1849 5.6473ZM16.9509 13.3117C16.9509 14.3798 16.2324 15.7382 15.3494 16.3403L12.0559 18.5863L8.7623 16.3401C7.89416 15.7483 7.16093 14.3613 7.16093 13.3115V8.63319L12.0559 6.2359L16.9511 8.64024L16.9509 13.3117Z" fill="#192324"/>
<path d="M10.1778 9.20582H10.1746C10.013 9.20486 9.8813 9.3352 9.88035 9.49678C9.87959 9.65856 10.0099 9.79023 10.1715 9.79118L11.258 9.8028C11.8834 9.80947 12.4204 10.2491 12.5507 10.8605L10.1601 10.835H10.157C9.99525 10.8341 9.86358 10.9644 9.86263 11.126C9.86186 11.2877 9.9922 11.4194 10.1538 11.4204L12.5444 11.4459C12.4009 12.0547 11.8546 12.4825 11.2292 12.4758L10.1427 12.4642H10.1395C10.0202 12.4642 9.91274 12.5366 9.86815 12.6471C9.82337 12.7578 9.85043 12.8845 9.93618 12.9674L12.6244 15.5625C12.7407 15.6749 12.9261 15.6719 13.0385 15.5557C13.1509 15.4392 13.1477 15.254 13.0314 15.1416L10.8727 13.0574L11.2233 13.061C12.1719 13.0711 12.9857 12.388 13.1404 11.4522L13.9514 11.461H13.9547C14.1162 11.4617 14.2479 11.3314 14.2489 11.1698C14.2496 11.0082 14.1193 10.8764 13.9577 10.8756L13.1467 10.8668C13.0911 10.4726 12.9135 10.1056 12.6387 9.81748L13.9689 9.83177H13.972C14.1338 9.83253 14.2654 9.70219 14.2662 9.54061C14.2672 9.37902 14.1368 9.24716 13.9752 9.2464L11.2647 9.21706L10.1778 9.20582Z" fill="#192324"/>
</g>
<defs>
<clipPath id="clip0_27_218">
<rect width="24" height="24" fill="white" transform="translate(0.0559082 0.412842)"/>
</clipPath>
</defs>
</svg>
