<svg width="25" height="25" viewBox="0 0 25 25" fill="none" xmlns="http://www.w3.org/2000/svg">
<g clip-path="url(#clip0_26_216)">
<path d="M12.6422 0.881592H11.9474L2.08261 3.96995V10.252V13.2461V14.7433C2.08181 14.7685 2.08326 14.8038 2.08753 14.8337L2.09559 14.8946L2.11326 15.0007C2.12601 15.0699 2.14036 15.137 2.15611 15.2035C2.18756 15.3362 2.22384 15.4655 2.26415 15.5929C2.34473 15.8471 2.44045 16.0939 2.54751 16.334C2.97797 17.2939 3.57918 18.1522 4.26272 18.9219C4.94798 19.6922 5.71978 20.3739 6.53723 20.9841C7.35534 21.5939 8.22042 22.1338 9.11189 22.6176C9.55767 22.8592 10.0103 23.0872 10.4681 23.3029C10.6971 23.411 10.9273 23.5155 11.1587 23.6173L11.5067 23.7678L11.9285 23.9442H12.2949H12.6611L13.0829 23.7678L13.4309 23.6173C13.6623 23.5155 13.8926 23.411 14.1215 23.3029C14.5793 23.0871 15.0319 22.8592 15.4777 22.6176C16.3693 22.1339 17.2342 21.5939 18.0525 20.9841C18.8699 20.3739 19.6416 19.6921 20.3269 18.9219C21.0105 18.1522 21.6119 17.294 22.0424 16.334C22.1494 16.0939 22.2451 15.8475 22.3257 15.5929C22.3659 15.4655 22.4023 15.3362 22.4338 15.2035C22.4494 15.137 22.4639 15.0702 22.4766 15.0007L22.4942 14.8946L22.5023 14.8337C22.5067 14.8042 22.508 14.7688 22.5072 14.7433V13.2461V10.252V3.96995L12.6422 0.881592ZM11.8949 23.0615L11.4809 22.8847C11.2555 22.7858 11.0316 22.6836 10.809 22.5786C10.364 22.3692 9.92489 22.148 9.4934 21.9142C8.63072 21.4458 7.79807 20.9259 7.01568 20.3428C6.23437 19.7593 5.50289 19.1117 4.86079 18.3903C4.22029 17.6696 3.66506 16.8715 3.27839 16.0078C3.18229 15.7925 3.09722 15.5728 3.02714 15.3516C2.99212 15.2408 2.96109 15.13 2.93498 15.0196C2.922 14.9646 2.91023 14.9099 2.90039 14.8562L2.88745 14.7779L2.88314 14.7461C2.88314 14.7461 2.88314 14.7461 2.88314 14.7433V13.2462V10.252V4.55781L11.895 1.73655V4.58805C11.1065 4.63248 10.3243 4.80789 9.59442 5.11145C8.74036 5.46512 7.95881 5.98914 7.30593 6.6422C6.65282 7.29508 6.1289 8.07662 5.77523 8.9305C5.42039 9.784 5.23907 10.7085 5.23922 11.6311C5.23879 12.5537 5.42034 13.4787 5.77523 14.3319C6.12867 15.1857 6.65287 15.9677 7.30593 16.6203C7.95862 17.2734 8.7404 17.7976 9.59423 18.1512C10.3241 18.4546 11.1065 18.6302 11.895 18.6746V23.0615H11.8949ZM12.2949 17.8868C10.653 17.8955 9.02756 17.2203 7.87172 16.0545C6.70603 14.8984 6.03093 13.2732 6.03961 11.6311C6.03093 9.98945 6.70603 8.36383 7.87172 7.20798C9.02756 6.0423 10.6532 5.3672 12.2949 5.37587C13.8849 5.36748 15.4581 6.00184 16.6057 7.10055L12.4293 13.8835L9.19223 10.7839L8.63892 11.362L12.5911 15.1469L17.1696 7.71105C18.0555 8.81209 18.5577 10.2153 18.5502 11.6316C18.5588 13.2733 17.8837 14.8989 16.7181 16.0545C15.5622 17.2204 13.9366 17.8955 12.2949 17.8868ZM21.7067 10.252V13.2461V14.7433V14.746L21.7024 14.7779L21.6895 14.8565C21.6796 14.9099 21.6678 14.9646 21.6549 15.0196C21.6287 15.13 21.5977 15.2412 21.5627 15.3516C21.4926 15.5728 21.4075 15.7925 21.3114 16.0078C20.9246 16.872 20.3696 17.6696 19.729 18.3903C19.0868 19.1121 18.3553 19.7593 17.5739 20.3428C16.7917 20.9259 15.9589 21.4458 15.0962 21.9142C14.6648 22.148 14.2257 22.3692 13.7806 22.5786C13.5581 22.684 13.3341 22.7858 13.1087 22.8847L12.6949 23.0615V18.6747C13.4834 18.6303 14.2655 18.4547 14.9955 18.1513C15.8495 17.7976 16.6311 17.2734 17.2839 16.6204C17.937 15.9677 18.461 15.1861 18.8146 14.3323C19.1694 13.4788 19.351 12.5542 19.3507 11.6316C19.3511 10.7089 19.1695 9.78405 18.8146 8.93073C18.4612 8.07686 17.937 7.29508 17.2841 6.64244C16.6312 5.98933 15.8495 5.46517 14.9956 5.1115C14.2657 4.80817 13.4834 4.63253 12.6949 4.58809V1.73655L21.7068 4.55781L21.7067 10.252Z" fill="#192324"/>
</g>
<defs>
<clipPath id="clip0_26_216">
<rect width="24" height="24" fill="white" transform="translate(0.294922 0.412842)"/>
</clipPath>
</defs>
</svg>
