<?xml version="1.0" encoding="UTF-8"?><svg id="Layer_1" xmlns="http://www.w3.org/2000/svg" viewBox="0 0 600 400"><defs><style>.cls-1{fill:#231f20;}.cls-2{fill:#fff;}</style></defs><polygon class="cls-2" points="158.4 260.64 156.17 266.42 211.36 128.25 167.18 128.25 115.88 260.54 115.88 260.64 158.4 260.64"/><path class="cls-1" d="M156.52,266.56l-.7-.27,2.03-5.27h-42.35l.03-.61,51.39-132.53h44.99l-.21.51-55.19,138.17ZM116.39,260.26h41.84l52.58-131.64h-43.37l-51.04,131.64Z"/><polygon points="115.88 260.64 115.88 260.54 115.88 128.25 75.95 128.25 75.95 297.84 144.07 297.84 156.17 266.42 158.4 260.64 115.88 260.64"/><path d="M144.33,298.21h-68.76V127.87h40.69v132.39h42.69l-14.62,37.95ZM76.32,297.46h67.49l14.04-36.45h-42.35v-132.39h-39.19v168.84Z"/><path class="cls-2" d="M286.04,128.03h11.56l7.5,56.55h.21l7.5-56.55h10.52l-11.04,72.9h-15.2l-11.04-72.9Z"/><path class="cls-1" d="M312.6,201.3h-15.85l-11.15-73.65h12.32l7.27,54.85,7.27-54.85h11.28l-11.15,73.65ZM297.4,200.55h14.56l10.92-72.15h-9.75l-7.5,56.55h-.87l-7.5-56.55h-10.79l10.92,72.15Z"/><path class="cls-2" d="M335.08,128.03h31.24v10.41h-19.79v19.27h15.72v10.41h-15.72v22.39h19.79v10.41h-31.24v-72.9Z"/><path class="cls-1" d="M366.7,201.3h-31.99v-73.65h31.99v11.16h-19.79v18.52h15.72v11.16h-15.72v21.64h19.79v11.16ZM335.46,200.55h30.49v-9.66h-19.79v-23.14h15.72v-9.66h-15.72v-20.02h19.79v-9.66h-30.49v72.15Z"/><path class="cls-1" d="M289.06,224.67h11.46v62.48h18.85v10.41h-30.3v-72.9Z"/><path class="cls-1" d="M331.13,224.67h31.24v10.41h-19.79v19.27h15.72v10.41h-15.72v22.39h19.79v10.41h-31.24v-72.9Z"/><path class="cls-1" d="M384.03,224.67h15.52l11.87,72.9h-11.46l-2.08-14.47v.21h-13.02l-2.08,14.27h-10.62l11.87-72.9ZM396.52,273.41l-5.1-36.03h-.21l-5,36.03h10.31Z"/><path class="cls-1" d="M425.16,293.87c-2.85-3.16-4.27-7.69-4.27-13.59v-4.17h10.83v5c0,4.72,1.98,7.08,5.94,7.08,1.94,0,3.42-.57,4.43-1.72,1.01-1.14,1.51-3,1.51-5.57,0-3.05-.7-5.74-2.08-8.07-1.39-2.33-3.96-5.12-7.71-8.38-4.72-4.17-8.02-7.93-9.89-11.3-1.87-3.37-2.81-7.17-2.81-11.4,0-5.76,1.46-10.22,4.37-13.38,2.92-3.16,7.15-4.74,12.71-4.74s9.63,1.58,12.44,4.74c2.81,3.16,4.22,7.69,4.22,13.59v3.02h-10.83v-3.75c0-2.5-.49-4.32-1.46-5.47-.97-1.14-2.39-1.72-4.27-1.72-3.82,0-5.73,2.33-5.73,6.98,0,2.64.71,5.1,2.13,7.39,1.42,2.29,4.01,5.07,7.76,8.33,4.79,4.17,8.09,7.95,9.89,11.35,1.8,3.4,2.71,7.39,2.71,11.97,0,5.97-1.48,10.55-4.43,13.75-2.95,3.2-7.24,4.79-12.86,4.79s-9.75-1.58-12.6-4.74Z"/><path class="cls-1" d="M467.86,224.67h31.24v10.41h-19.79v19.27h15.72v10.41h-15.72v22.39h19.79v10.41h-31.24v-72.9Z"/><rect class="cls-1" x="247.87" y="100.76" width=".75" height="221.43"/></svg>