<svg width="600" height="400" viewBox="0 0 600 400" fill="none" xmlns="http://www.w3.org/2000/svg">
<path d="M165.91 258.14L218.87 125.75H174.69L123.39 258.04V258.14H165.91Z" fill="#00B6DF"/>
<path d="M123.39 258.14V258.04V125.75H83.46V295.33H151.58L163.68 263.94L165.91 258.14H123.39Z" fill="#082341"/>
<path d="M293.55 125.53H305.11L312.61 182.08H312.82L320.32 125.53H330.84L319.8 198.43H304.6L293.56 125.53H293.55Z" fill="#00B6DF"/>
<path d="M342.6 125.53H373.84V135.94H354.05V155.21H369.77V165.62H354.05V188.01H373.84V198.42H342.6V125.52V125.53Z" fill="#00B6DF"/>
<path d="M296.57 222.17H308.03V284.65H326.88V295.06H296.58V222.16L296.57 222.17Z" fill="#082342"/>
<path d="M338.64 222.17H369.88V232.58H350.09V251.85H365.81V262.26H350.09V284.65H369.88V295.06H338.64V222.16V222.17Z" fill="#082342"/>
<path d="M391.54 222.17H407.06L418.93 295.07H407.47L405.39 280.6V280.81H392.37L390.29 295.08H379.67L391.54 222.18V222.17ZM404.04 270.91L398.94 234.88H398.73L393.73 270.91H404.04Z" fill="#082342"/>
<path d="M432.67 291.37C429.82 288.21 428.4 283.68 428.4 277.78V273.61H439.23V278.61C439.23 283.33 441.21 285.69 445.17 285.69C447.11 285.69 448.59 285.12 449.6 283.97C450.61 282.82 451.11 280.97 451.11 278.4C451.11 275.35 450.41 272.66 449.03 270.33C447.64 268 445.07 265.21 441.32 261.95C436.6 257.78 433.3 254.02 431.43 250.65C429.56 247.28 428.62 243.48 428.62 239.25C428.62 233.49 430.08 229.03 432.99 225.87C435.91 222.71 440.14 221.13 445.7 221.13C451.26 221.13 455.33 222.71 458.14 225.87C460.95 229.03 462.36 233.56 462.36 239.46V242.48H451.53V238.73C451.53 236.23 451.04 234.41 450.07 233.26C449.1 232.11 447.68 231.54 445.8 231.54C441.98 231.54 440.07 233.87 440.07 238.52C440.07 241.16 440.78 243.62 442.2 245.91C443.62 248.2 446.21 250.98 449.96 254.24C454.75 258.41 458.05 262.19 459.85 265.59C461.65 268.99 462.56 272.98 462.56 277.57C462.56 283.54 461.08 288.12 458.13 291.32C455.18 294.51 450.89 296.11 445.27 296.11C439.65 296.11 435.52 294.53 432.67 291.37Z" fill="#082342"/>
<path d="M475.26 222.17H506.5V232.58H486.71V251.85H502.43V262.26H486.71V284.65H506.5V295.06H475.26V222.16V222.17Z" fill="#082342"/>
<path d="M258.135 99.825H254.285V321.255H258.135V99.825Z" fill="#082342"/>
</svg>
