<svg width="600" height="500" viewBox="0 0 600 500" fill="none" xmlns="http://www.w3.org/2000/svg">
<g clip-path="url(#clip0_57_3)">
<path d="M602.68 -1.5H-2.19995V500.73H602.68V-1.5Z" fill="black"/>
<path d="M171.37 297.21L169.14 302.99L224.33 164.82H180.15L128.85 297.11V297.21H171.37Z" fill="black"/>
<path d="M225.075 163.95L224.792 164.639L224.584 165.149L169.71 303.314L169.342 303.167L169.256 303.629H168.509L168.596 303.41L168.379 303.326L167.916 303.146L168.093 302.681L169.852 298.089H127.945L127.971 297.565L128 296.956L128.004 296.875L128.034 296.8L179.13 164.27L179.253 163.95H225.075ZM130.094 296.339H170.617L222.5 165.7H180.458L130.094 296.339Z" fill="white" stroke="white"/>
<path d="M129.35 164.32V296.709H172.099L171.836 297.39L169.607 303.169L157.507 334.589L157.383 334.91H88.4202V164.32H129.35Z" fill="white" stroke="white"/>
<path d="M157.38 334.91H88.4102V164.32H129.35V296.71H172.1L157.38 334.91ZM89.4202 333.91H156.7L170.64 297.71H128.35V165.32H89.4102V333.91H89.4202Z" fill="white"/>
<path d="M299.01 164.61H310.57L318.07 221.16H318.28L325.78 164.61H336.3L325.26 237.51H310.06L299.02 164.61H299.01Z" fill="white"/>
<path d="M348.05 164.61H379.29V175.02H359.5V194.29H375.22V204.7H359.5V227.09H379.29V237.5H348.05V164.6V164.61Z" fill="white"/>
<path d="M302.03 261.24H313.49V323.72H332.34V334.13H302.04V261.229L302.03 261.24Z" fill="white"/>
<path d="M344.1 261.24H375.34V271.65H355.55V290.919H371.27V301.329H355.55V323.72H375.34V334.13H344.1V261.229V261.24Z" fill="white"/>
<path d="M397 261.24H412.52L424.39 334.14H412.93L410.85 319.67V319.88H397.83L395.75 334.15H385.13L397 261.25V261.24ZM409.49 309.98L404.39 273.95H404.18L399.18 309.98H409.49Z" fill="white"/>
<path d="M438.13 330.44C435.28 327.28 433.86 322.75 433.86 316.85V312.68H444.69V317.68C444.69 322.4 446.67 324.76 450.63 324.76C452.57 324.76 454.05 324.19 455.06 323.04C456.07 321.89 456.57 320.04 456.57 317.47C456.57 314.42 455.87 311.73 454.49 309.4C453.1 307.07 450.53 304.28 446.78 301.02C442.06 296.85 438.76 293.09 436.89 289.72C435.02 286.35 434.08 282.55 434.08 278.32C434.08 272.56 435.54 268.1 438.45 264.94C441.37 261.78 445.6 260.2 451.16 260.2C456.72 260.2 460.79 261.78 463.6 264.94C466.41 268.1 467.82 272.63 467.82 278.53V281.55H456.99V277.8C456.99 275.3 456.5 273.48 455.53 272.33C454.56 271.18 453.14 270.61 451.26 270.61C447.44 270.61 445.53 272.94 445.53 277.59C445.53 280.23 446.24 282.69 447.66 284.98C449.08 287.27 451.67 290.05 455.42 293.31C460.21 297.48 463.51 301.26 465.31 304.66C467.11 308.06 468.02 312.05 468.02 316.64C468.02 322.61 466.54 327.19 463.59 330.39C460.64 333.58 456.35 335.18 450.73 335.18C445.11 335.18 440.98 333.6 438.13 330.44Z" fill="white"/>
<path d="M480.83 261.24H512.07V271.65H492.28V290.919H508V301.329H492.28V323.72H512.07V334.13H480.83V261.229V261.24Z" fill="white"/>
<path d="M263.595 138.9H259.745V360.33H263.595V138.9Z" fill="white"/>
</g>
<defs>
<clipPath id="clip0_57_3">
<rect width="600" height="500" fill="white"/>
</clipPath>
</defs>
</svg>
