<?xml version="1.0" encoding="UTF-8"?><svg id="Layer_1" xmlns="http://www.w3.org/2000/svg" viewBox="0 0 600 500"><defs><style>.cls-1{stroke:#fff;stroke-miterlimit:10;stroke-width:.75px;}.cls-2{fill:#fff;}</style></defs><rect x="-2.2" y="-1.5" width="604.88" height="502.23"/><polygon points="158.4 308.97 156.17 314.75 211.36 176.58 167.18 176.58 115.88 308.87 115.88 308.97 158.4 308.97"/><path class="cls-2" d="M156.52,314.89l-.7-.27,2.03-5.27h-42.35l.03-.61,51.39-132.53h44.99l-.21.51-55.19,138.17ZM116.39,308.6h41.84l52.58-131.64h-43.37l-51.04,131.64Z"/><polygon class="cls-2" points="115.88 308.97 115.88 308.87 115.88 176.58 75.95 176.58 75.95 346.17 144.07 346.17 156.17 314.75 158.4 308.97 115.88 308.97"/><path class="cls-2" d="M144.41,346.67h-68.97v-170.59h40.94v132.39h42.75l-14.72,38.2ZM76.45,345.67h67.28l13.94-36.2h-42.29v-132.39h-38.94v168.59Z"/><path class="cls-1" d="M286.04,176.37h11.56l7.5,56.55h.21l7.5-56.55h10.52l-11.04,72.9h-15.2l-11.04-72.9Z"/><path class="cls-1" d="M335.08,176.37h31.24v10.41h-19.79v19.27h15.72v10.41h-15.72v22.39h19.79v10.41h-31.24v-72.9Z"/><path class="cls-2" d="M289.06,273h11.46v62.48h18.85v10.41h-30.3v-72.9Z"/><path class="cls-2" d="M331.13,273h31.24v10.41h-19.79v19.27h15.72v10.41h-15.72v22.39h19.79v10.41h-31.24v-72.9Z"/><path class="cls-2" d="M384.03,273h15.52l11.87,72.9h-11.46l-2.08-14.47v.21h-13.02l-2.08,14.27h-10.62l11.87-72.9ZM396.52,321.74l-5.1-36.03h-.21l-5,36.03h10.31Z"/><path class="cls-2" d="M425.16,342.2c-2.85-3.16-4.27-7.69-4.27-13.59v-4.17h10.83v5c0,4.72,1.98,7.08,5.94,7.08,1.94,0,3.42-.57,4.43-1.72,1.01-1.15,1.51-3,1.51-5.57,0-3.05-.7-5.74-2.08-8.07-1.39-2.33-3.96-5.12-7.71-8.38-4.72-4.17-8.02-7.93-9.89-11.3-1.87-3.37-2.81-7.17-2.81-11.4,0-5.76,1.46-10.22,4.37-13.38,2.92-3.16,7.15-4.74,12.71-4.74s9.63,1.58,12.44,4.74c2.81,3.16,4.22,7.69,4.22,13.59v3.02h-10.83v-3.75c0-2.5-.49-4.32-1.46-5.47-.97-1.15-2.39-1.72-4.27-1.72-3.82,0-5.73,2.33-5.73,6.98,0,2.64.71,5.1,2.13,7.39,1.42,2.29,4.01,5.07,7.76,8.33,4.79,4.17,8.09,7.95,9.89,11.35,1.8,3.4,2.71,7.39,2.71,11.98,0,5.97-1.48,10.55-4.43,13.75-2.95,3.19-7.24,4.79-12.86,4.79s-9.75-1.58-12.6-4.74Z"/><path class="cls-2" d="M467.86,273h31.24v10.41h-19.79v19.27h15.72v10.41h-15.72v22.39h19.79v10.41h-31.24v-72.9Z"/><rect class="cls-2" x="247.87" y="149.09" width=".75" height="221.43"/></svg>